<svg width="230" height="153" viewBox="0 0 230 153" fill="none" xmlns="http://www.w3.org/2000/svg">
<path d="M105.097 57.4463H89.0598V73.4084H105.097V57.4463Z" fill="white"/>
<path d="M137.281 89.546H121.332L121.419 104.434L122.318 105.42L137.216 120.33V120.396H168.918V104.675H137.281V89.546Z" fill="white"/>
<path d="M89.0598 104.434L105.119 120.308V104.434V89.546H89.0598V104.434Z" fill="white"/>
<path d="M58.6065 82.6173H62.7473V80.8633H58.6065V78.6487H62.9225V76.8947H56.7661V86.6298H63.0759V84.8757H58.6065V82.6173Z" fill="white"/>
<path d="M70.3715 85.0731H70.1305L68.9913 76.8947H65.3982V86.6298H67.2385V78.4733H67.4795L68.6188 86.6298H72.2119V76.8947H70.3715V85.0731Z" fill="white"/>
<path d="M74.2056 78.6487H76.8127V86.6298H78.6312V78.6487H81.2164V76.8947H74.2056V78.6487Z" fill="white"/>
<path d="M89.9361 86.6298V83.2532C89.9361 82.9243 89.8484 82.6612 89.6513 82.4419C89.4541 82.2227 89.2131 82.113 88.8845 82.0692V81.828C89.3226 81.6526 89.6513 81.3676 89.8704 81.0167C90.0894 80.6659 90.199 80.2932 90.199 79.8985V79.5916C90.199 79.2188 90.1333 78.868 90.0018 78.5391C89.8704 78.2102 89.6732 77.9252 89.4103 77.684C89.1474 77.4428 88.8406 77.2455 88.4463 77.1139C88.0738 76.9824 87.6356 76.8947 87.1317 76.8947H83.4072V86.6517H85.2476V82.9682H87.3727C87.6356 82.9682 87.8328 83.0339 87.9424 83.1874C88.0519 83.319 88.1176 83.5163 88.1176 83.7356V86.6517H89.9361V86.6298ZM88.0081 80.9071C87.7671 81.1045 87.4385 81.2141 87.0003 81.2141H85.2476V78.6487H87.0003C87.4385 78.6487 87.789 78.7584 88.0081 78.9995C88.2491 79.2407 88.3586 79.5258 88.3586 79.8327V80.0081C88.3586 80.4028 88.2272 80.6879 88.0081 80.9071Z" fill="white"/>
<path d="M98.5902 78.6487V76.8947H92.4338V86.6298H98.7655V84.8757H94.2742V82.6173H98.415V80.8633H94.2742V78.6487H98.5902Z" fill="white"/>
<path d="M107.266 77.7717C107.025 77.5086 106.718 77.2893 106.346 77.1358C105.973 76.9824 105.535 76.8947 105.031 76.8947H101.219V86.6517H103.06V82.9682H105.031C105.535 82.9682 105.973 82.8805 106.346 82.727C106.718 82.5516 107.025 82.3323 107.266 82.0692C107.507 81.8061 107.704 81.4772 107.814 81.1264C107.945 80.7756 108.011 80.4247 108.011 80.052V79.7231C108.011 79.3723 107.945 79.0215 107.814 78.6926C107.682 78.3637 107.507 78.0348 107.266 77.7717ZM106.171 80.0081C106.171 80.359 106.061 80.644 105.82 80.8633C105.579 81.0825 105.25 81.1922 104.856 81.1922H103.06V78.6268H104.856C105.272 78.6268 105.579 78.7364 105.82 78.9557C106.061 79.175 106.171 79.46 106.171 79.8108V80.0081Z" fill="white"/>
<path d="M116.161 77.684C115.898 77.4428 115.592 77.2455 115.219 77.1139C114.847 76.9824 114.409 76.8947 113.905 76.8947H110.18V86.6517H112.021V82.9682H114.124C114.387 82.9682 114.584 83.0339 114.693 83.1874C114.803 83.3409 114.869 83.5163 114.869 83.7356V86.6517H116.709V83.2751C116.709 82.9462 116.621 82.6831 116.424 82.4639C116.227 82.2446 115.986 82.135 115.657 82.0911V81.8499C116.096 81.6745 116.424 81.3895 116.643 81.0387C116.862 80.6879 116.972 80.3151 116.972 79.9204V79.5916C116.972 79.2188 116.906 78.868 116.775 78.5391C116.599 78.2102 116.402 77.9252 116.161 77.684ZM115.11 80.0081C115.11 80.3809 115 80.6879 114.759 80.8852C114.518 81.0825 114.19 81.1922 113.751 81.1922H111.999V78.6268H113.751C114.19 78.6268 114.54 78.7364 114.759 78.9776C115 79.2188 115.11 79.5038 115.11 79.8108V80.0081Z" fill="white"/>
<path d="M125.516 84.8757H121.025V82.6173H125.166V80.8633H121.025V78.6487H125.341V76.8947H119.185V86.6298H125.516V84.8757Z" fill="white"/>
<path d="M132.549 85.0731L131.41 76.8947H127.817V86.6298H129.657V78.4733H129.92L131.059 86.6298H134.631V76.8947H132.812V85.0731H132.549Z" fill="white"/>
<path d="M143.175 78.6487V76.8947H137.041V86.6298H143.35V84.8757H138.859V82.6173H143.022V80.8633H138.859V78.6487H143.175Z" fill="white"/>
<path d="M145.563 76.8947V83.2751C145.563 84.3934 145.848 85.2704 146.439 85.8843C147.031 86.5202 147.907 86.8271 149.068 86.8271C150.23 86.8271 151.106 86.5202 151.698 85.8843C152.289 85.2485 152.574 84.3714 152.574 83.2751V76.8947H150.734V83.2751C150.734 83.8452 150.602 84.3057 150.339 84.6345C150.076 84.9634 149.638 85.1169 149.068 85.1169C148.499 85.1169 148.061 84.9634 147.798 84.6345C147.535 84.3057 147.403 83.8671 147.403 83.2751V76.8947H145.563Z" fill="white"/>
<path d="M161.228 81.0387C161.447 80.6879 161.556 80.3151 161.556 79.9204V79.5916C161.556 79.2188 161.491 78.868 161.359 78.5391C161.228 78.2102 161.031 77.9252 160.768 77.684C160.505 77.4428 160.198 77.2455 159.826 77.1139C159.453 76.9824 159.015 76.8947 158.511 76.8947H154.787V86.6517H156.627V82.9682H158.752C159.015 82.9682 159.212 83.0339 159.322 83.1874C159.431 83.3409 159.497 83.5163 159.497 83.7356V86.6517H161.337V83.2751C161.337 82.9462 161.25 82.6831 161.053 82.4639C160.855 82.2446 160.614 82.135 160.286 82.0911V81.8499C160.68 81.6526 161.009 81.3895 161.228 81.0387ZM159.694 80.0081C159.694 80.3809 159.585 80.6879 159.344 80.8852C159.103 81.0825 158.774 81.1922 158.336 81.1922H156.583V78.6268H158.336C158.774 78.6268 159.125 78.7364 159.344 78.9776C159.585 79.2188 159.694 79.5038 159.694 79.8108V80.0081Z" fill="white"/>
<path d="M169.772 81.7403C169.225 81.3018 168.458 80.9948 167.428 80.8194C167.012 80.7537 166.683 80.666 166.42 80.5782C166.157 80.4905 165.938 80.4028 165.785 80.2932C165.61 80.1836 165.5 80.0739 165.434 79.9205C165.369 79.7889 165.347 79.6354 165.347 79.46C165.347 79.1311 165.478 78.8899 165.741 78.6926C166.004 78.4953 166.376 78.4076 166.837 78.4076C167.384 78.4076 167.801 78.5611 168.107 78.8461C168.414 79.1311 168.567 79.4819 168.567 79.8547V80.1836H170.408V79.6793C170.408 79.2846 170.342 78.8899 170.189 78.5391C170.035 78.1883 169.816 77.8594 169.509 77.5744C169.203 77.2893 168.83 77.0701 168.392 76.9166C167.954 76.7631 167.428 76.6754 166.858 76.6754C166.355 76.6754 165.894 76.7412 165.478 76.8947C165.062 77.0262 164.711 77.2236 164.427 77.4867C164.142 77.7279 163.901 78.0348 163.747 78.3637C163.594 78.6926 163.506 79.0654 163.506 79.46V79.5477C163.506 80.0301 163.594 80.4467 163.747 80.7756C163.923 81.1045 164.142 81.3895 164.448 81.6088C164.755 81.828 165.106 82.0034 165.522 82.135C165.938 82.2666 166.376 82.3762 166.88 82.4639C167.253 82.5297 167.56 82.6174 167.801 82.7051C168.042 82.7928 168.239 82.9024 168.37 83.012C168.502 83.1217 168.611 83.2532 168.655 83.4067C168.699 83.5602 168.743 83.6917 168.743 83.8672C168.743 84.196 168.611 84.4811 168.348 84.7223C168.085 84.9635 167.669 85.095 167.099 85.095C166.376 85.095 165.851 84.9196 165.522 84.5688C165.193 84.218 165.018 83.7575 165.018 83.1655V82.8366H163.178V83.2532C163.178 83.7575 163.265 84.2399 163.419 84.6784C163.594 85.1169 163.835 85.4897 164.164 85.7966C164.492 86.1255 164.887 86.3667 165.391 86.5421C165.873 86.7175 166.442 86.8052 167.078 86.8052C167.625 86.8052 168.107 86.7395 168.545 86.586C168.984 86.4544 169.356 86.2571 169.663 85.994C169.97 85.7309 170.211 85.4239 170.364 85.0512C170.517 84.6784 170.605 84.2837 170.605 83.8233V83.6479C170.583 82.8366 170.32 82.1788 169.772 81.7403Z" fill="white"/>
<path d="M170.232 57.8409L153.823 41.5499H121.529V57.8629H153.976V73.4084H170.254V57.8409H170.232Z" fill="white"/>
<path d="M56.8098 73.4961H72.8033V40.8044L56.8098 57.5559V73.4961Z" fill="white"/>
</svg>
